<svg aria-hidden="true" style="display: inline; height: 0; position: absolute;" xmlns:xlink="http://www.w3.org/1999/xlink">
  <title>Site icons</title>
  <defs>
    <symbol id="uw-symbol-more" viewBox="0,0,1792,1792">
      <title id="title">More</title>
      <path d="M979 960q0 13-10 23l-466 466q-10 10-23 10t-23-10l-50-50q-10-10-10-23t10-23l393-393-393-393q-10-10-10-23t10-23l50-50q10-10 23-10t23 10l466 466q10 10 10 23zm384 0q0 13-10 23l-466 466q-10 10-23 10t-23-10l-50-50q-10-10-10-23t10-23l393-393-393-393q-10-10-10-23t10-23l50-50q10-10 23-10t23 10l466 466q10 10 10 23z"/>
    </symbol>
    <symbol id="uw-symbol-menu" viewBox="0 0 1024 1024">
      <title id="svg-menu">open menu</title>
      <path class="path1" d="M128 256h768v86h-768v-86zM128 554v-84h768v84h-768zM128 768v-86h768v86h-768z"></path>
    </symbol>
    <symbol id="uw-symbol-close" viewBox="0 0 805 1024">
      <title>close</title>
      <path class="path1" d="M741.714 755.429q0 22.857-16 38.857l-77.714 77.714q-16 16-38.857 16t-38.857-16l-168-168-168 168q-16 16-38.857 16t-38.857-16l-77.714-77.714q-16-16-16-38.857t16-38.857l168-168-168-168q-16-16-16-38.857t16-38.857l77.714-77.714q16-16 38.857-16t38.857 16l168 168 168-168q16-16 38.857-16t38.857 16l77.714 77.714q16 16 16 38.857t-16 38.857l-168 168 168 168q16 16 16 38.857z"></path>
    </symbol>
    <symbol id="uw-symbol-map-marker" class="uw-map-marker" viewBox="0 0 585 1024">
      <title>map marker</title>
      <path class="path1" d="M438.857 365.714q0-60.571-42.857-103.429t-103.429-42.857-103.429 42.857-42.857 103.429 42.857 103.429 103.429 42.857 103.429-42.857 42.857-103.429zM585.143 365.714q0 62.286-18.857 102.286l-208 442.286q-9.143 18.857-27.143 29.714t-38.571 10.857-38.571-10.857-26.571-29.714l-208.571-442.286q-18.857-40-18.857-102.286 0-121.143 85.714-206.857t206.857-85.714 206.857 85.714 85.714 206.857z"></path>
    </symbol>
    <symbol id="uw-symbol-search" viewBox="0 0 951 1024">
      <title>search</title>
      <path class="path1" d="M658.286 475.429q0-105.714-75.143-180.857t-180.857-75.143-180.857 75.143-75.143 180.857 75.143 180.857 180.857 75.143 180.857-75.143 75.143-180.857zM950.857 950.857q0 29.714-21.714 51.429t-51.429 21.714q-30.857 0-51.429-21.714l-196-195.429q-102.286 70.857-228 70.857-81.714 0-156.286-31.714t-128.571-85.714-85.714-128.571-31.714-156.286 31.714-156.286 85.714-128.571 128.571-85.714 156.286-31.714 156.286 31.714 128.571 85.714 85.714 128.571 31.714 156.286q0 125.714-70.857 228l196 196q21.143 21.143 21.143 51.429z"></path>
    </symbol>
    <symbol id="uw-symbol-search-gray" viewBox="0 0 951 1024">
      <title>search</title>
      <path class="path1" d="M658.286 475.429q0-105.714-75.143-180.857t-180.857-75.143-180.857 75.143-75.143 180.857 75.143 180.857 180.857 75.143 180.857-75.143 75.143-180.857zM950.857 950.857q0 29.714-21.714 51.429t-51.429 21.714q-30.857 0-51.429-21.714l-196-195.429q-102.286 70.857-228 70.857-81.714 0-156.286-31.714t-128.571-85.714-85.714-128.571-31.714-156.286 31.714-156.286 85.714-128.571 128.571-85.714 156.286-31.714 156.286 31.714 128.571 85.714 85.714 128.571 31.714 156.286q0 125.714-70.857 228l196 196q21.143 21.143 21.143 51.429z"></path>
    </symbol>
    <symbol id="uw-symbol-search-in-blank" viewBox="0 0 951 1024">
      <title>search</title>
      <path class="path1" d="M658.286 475.429q0-105.714-75.143-180.857t-180.857-75.143-180.857 75.143-75.143 180.857 75.143 180.857 180.857 75.143 180.857-75.143 75.143-180.857zM950.857 950.857q0 29.714-21.714 51.429t-51.429 21.714q-30.857 0-51.429-21.714l-196-195.429q-102.286 70.857-228 70.857-81.714 0-156.286-31.714t-128.571-85.714-85.714-128.571-31.714-156.286 31.714-156.286 85.714-128.571 128.571-85.714 156.286-31.714 156.286 31.714 128.571 85.714 85.714 128.571 31.714 156.286q0 125.714-70.857 228l196 196q21.143 21.143 21.143 51.429z"></path>
    </symbol>
    <symbol id="uw-symbol-envelope" viewBox="0 0 1024 1024">
      <title>envelope</title>
      <path class="path1" d="M1024 405.714v453.714q0 37.714-26.857 64.571t-64.571 26.857h-841.143q-37.714 0-64.571-26.857t-26.857-64.571v-453.714q25.143 28 57.714 49.714 206.857 140.571 284 197.143 32.571 24 52.857 37.429t54 27.429 62.857 14h1.143q29.143 0 62.857-14t54-27.429 52.857-37.429q97.143-70.286 284.571-197.143 32.571-22.286 57.143-49.714zM1024 237.714q0 45.143-28 86.286t-69.714 70.286q-214.857 149.143-267.429 185.714-5.714 4-24.286 17.429t-30.857 21.714-29.714 18.571-32.857 15.429-28.571 5.143h-1.143q-13.143 0-28.571-5.143t-32.857-15.429-29.714-18.571-30.857-21.714-24.286-17.429q-52-36.571-149.714-104.286t-117.143-81.429q-35.429-24-66.857-66t-31.429-78q0-44.571 23.714-74.286t67.714-29.714h841.143q37.143 0 64.286 26.857t27.143 64.571z"></path>
    </symbol>
    <symbol id="uw-symbol-linkedin" class="uw-social-symbols" viewBox="0 0 24 28">
      <title>linkedin</title>
      <path class="path1" d="M5.453 9.766v15.484h-5.156v-15.484h5.156zM5.781 4.984q0.016 1.141-0.789 1.906t-2.117 0.766h-0.031q-1.281 0-2.063-0.766t-0.781-1.906q0-1.156 0.805-1.914t2.102-0.758 2.078 0.758 0.797 1.914zM24 16.375v8.875h-5.141v-8.281q0-1.641-0.633-2.57t-1.977-0.93q-0.984 0-1.648 0.539t-0.992 1.336q-0.172 0.469-0.172 1.266v8.641h-5.141q0.031-6.234 0.031-10.109t-0.016-4.625l-0.016-0.75h5.141v2.25h-0.031q0.313-0.5 0.641-0.875t0.883-0.812 1.359-0.68 1.789-0.242q2.672 0 4.297 1.773t1.625 5.195z"></path>
    </symbol>
    <symbol id="uw-symbol-pinterest" class="uw-social-symbols" viewBox="0 0 731 1024">
      <title>pinterest</title>
      <path class="path1" d="M0 341.143q0-61.714 21.429-116.286t59.143-95.143 86.857-70.286 105.714-44.571 115.429-14.857q90.286 0 168 38t126.286 110.571 48.571 164q0 54.857-10.857 107.429t-34.286 101.143-57.143 85.429-82.857 58.857-108 22q-38.857 0-77.143-18.286t-54.857-50.286q-5.714 22.286-16 64.286t-13.429 54.286-11.714 40.571-14.857 40.571-18.286 35.714-26.286 44.286-35.429 49.429l-8 2.857-5.143-5.714q-8.571-89.714-8.571-107.429 0-52.571 12.286-118t38-164.286 29.714-116q-18.286-37.143-18.286-96.571 0-47.429 29.714-89.143t75.429-41.714q34.857 0 54.286 23.143t19.429 58.571q0 37.714-25.143 109.143t-25.143 106.857q0 36 25.714 59.714t62.286 23.714q31.429 0 58.286-14.286t44.857-38.857 32-54.286 21.714-63.143 11.429-63.429 3.714-56.857q0-98.857-62.571-154t-163.143-55.143q-114.286 0-190.857 74t-76.571 187.714q0 25.143 7.143 48.571t15.429 37.143 15.429 26 7.143 17.429q0 16-8.571 41.714t-21.143 25.714q-1.143 0-9.714-1.714-29.143-8.571-51.714-32t-34.857-54-18.571-61.714-6.286-60.857z"></path>
    </symbol>
    <symbol id="uw-symbol-twitter" class="uw-social-symbols" viewBox="0 0 951 1024">
      <title>twitter</title>
      <path class="path1" d="M925.714 233.143q-38.286 56-92.571 95.429 0.571 8 0.571 24 0 74.286-21.714 148.286t-66 142-105.429 120.286-147.429 83.429-184.571 31.143q-154.857 0-283.429-82.857 20 2.286 44.571 2.286 128.571 0 229.143-78.857-60-1.143-107.429-36.857t-65.143-91.143q18.857 2.857 34.857 2.857 24.571 0 48.571-6.286-64-13.143-106-63.714t-42-117.429v-2.286q38.857 21.714 83.429 23.429-37.714-25.143-60-65.714t-22.286-88q0-50.286 25.143-93.143 69.143 85.143 168.286 136.286t212.286 56.857q-4.571-21.714-4.571-42.286 0-76.571 54-130.571t130.571-54q80 0 134.857 58.286 62.286-12 117.143-44.571-21.143 65.714-81.143 101.714 53.143-5.714 106.286-28.571z"></path>
    </symbol>
    <symbol id="uw-symbol-youtube" class="uw-social-symbols" viewBox="0 0 878 1024">
      <title>youtube</title>
      <path class="path1" d="M554.857 710.857v120.571q0 38.286-22.286 38.286-13.143 0-25.714-12.571v-172q12.571-12.571 25.714-12.571 22.286 0 22.286 38.286zM748 711.429v26.286h-51.429v-26.286q0-38.857 25.714-38.857t25.714 38.857zM196 586.857h61.143v-53.714h-178.286v53.714h60v325.143h57.143v-325.143zM360.571 912h50.857v-282.286h-50.857v216q-17.143 24-32.571 24-10.286 0-12-12-0.571-1.714-0.571-20v-208h-50.857v223.429q0 28 4.571 41.714 6.857 21.143 33.143 21.143 27.429 0 58.286-34.857v30.857zM605.714 827.429v-112.571q0-41.714-5.143-56.571-9.714-32-40.571-32-28.571 0-53.143 30.857v-124h-50.857v378.857h50.857v-27.429q25.714 31.429 53.143 31.429 30.857 0 40.571-31.429 5.143-15.429 5.143-57.143zM798.857 821.714v-7.429h-52q0 29.143-1.143 34.857-4 20.571-22.857 20.571-26.286 0-26.286-39.429v-49.714h102.286v-58.857q0-45.143-15.429-66.286-22.286-29.143-60.571-29.143-38.857 0-61.143 29.143-16 21.143-16 66.286v98.857q0 45.143 16.571 66.286 22.286 29.143 61.714 29.143 41.143 0 61.714-30.286 10.286-15.429 12-30.857 1.143-5.143 1.143-33.143zM451.429 300v-120q0-39.429-24.571-39.429t-24.571 39.429v120q0 40 24.571 40t24.571-40zM862.286 729.143q0 133.714-14.857 200-8 33.714-33.143 56.571t-58.286 26.286q-105.143 12-317.143 12t-317.143-12q-33.143-3.429-58.571-26.286t-32.857-56.571q-14.857-64-14.857-200 0-133.714 14.857-200 8-33.714 33.143-56.571t58.857-26.857q104.571-11.429 316.571-11.429t317.143 11.429q33.143 4 58.571 26.857t32.857 56.571q14.857 64 14.857 200zM292 0h58.286l-69.143 228v154.857h-57.143v-154.857q-8-42.286-34.857-121.143-21.143-58.857-37.143-106.857h60.571l40.571 150.286zM503.429 190.286v100q0 46.286-16 67.429-21.143 29.143-60.571 29.143-38.286 0-60-29.143-16-21.714-16-67.429v-100q0-45.714 16-66.857 21.714-29.143 60-29.143 39.429 0 60.571 29.143 16 21.143 16 66.857zM694.857 97.714v285.143h-52v-31.429q-30.286 35.429-58.857 35.429-26.286 0-33.714-21.143-4.571-13.714-4.571-42.857v-225.143h52v209.714q0 18.857 0.571 20 1.714 12.571 12 12.571 15.429 0 32.571-24.571v-217.714h52z"></path>
    </symbol>
    <symbol id="uw-symbol-facebook" class="uw-social-symbols" viewBox="0 0 602 1024">
      <title>facebook</title>
      <path class="path1" d="M548 6.857v150.857h-89.714q-49.143 0-66.286 20.571t-17.143 61.714v108h167.429l-22.286 169.143h-145.143v433.714h-174.857v-433.714h-145.714v-169.143h145.714v-124.571q0-106.286 59.429-164.857t158.286-58.571q84 0 130.286 6.857z"></path>
    </symbol>
    <symbol id="uw-symbol-instagram" class="uw-social-symbols" viewBox="0 0 878 1024">
      <title>instagram</title>
      <path class="path1" d="M778.286 814.857v-370.286h-77.143q11.429 36 11.429 74.857 0 72-36.571 132.857t-99.429 96.286-137.143 35.429q-112.571 0-192.571-77.429t-80-187.143q0-38.857 11.429-74.857h-80.571v370.286q0 14.857 10 24.857t24.857 10h610.857q14.286 0 24.571-10t10.286-24.857zM616 510.286q0-70.857-51.714-120.857t-124.857-50q-72.571 0-124.286 50t-51.714 120.857 51.714 120.857 124.286 50q73.143 0 124.857-50t51.714-120.857zM778.286 304.571v-94.286q0-16-11.429-27.714t-28-11.714h-99.429q-16.571 0-28 11.714t-11.429 27.714v94.286q0 16.571 11.429 28t28 11.429h99.429q16.571 0 28-11.429t11.429-28zM877.714 185.714v652.571q0 46.286-33.143 79.429t-79.429 33.143h-652.571q-46.286 0-79.429-33.143t-33.143-79.429v-652.571q0-46.286 33.143-79.429t79.429-33.143h652.571q46.286 0 79.429 33.143t33.143 79.429z"></path>
    </symbol>
    <symbol id="uw-symbol-flickr" class="uw-social-symbols" viewBox="0 0 1792 1792">
      <title>flickr</title>
      <path d="M1376 128q119 0 203.5 84.5t84.5 203.5v960q0 119-84.5 203.5t-203.5 84.5h-960q-119 0-203.5-84.5t-84.5-203.5v-960q0-119 84.5-203.5t203.5-84.5h960zm-550 768q0-88-62-150t-150-62-150 62-62 150 62 150 150 62 150-62 62-150zm564 0q0-88-62-150t-150-62-150 62-62 150 62 150 150 62 150-62 62-150z"></path>
    </symbol>
    <symbol id="uw-symbol-caret-up" class="uw-caret" viewBox="0 0 1792 1792">
      <title>Collapse</title>
      <path d="M1395 1184q0 13-10 23l-50 50q-10 10-23 10t-23-10l-393-393-393 393q-10 10-23 10t-23-10l-50-50q-10-10-10-23t10-23l466-466q10-10 23-10t23 10l466 466q10 10 10 23z"></path>
    </symbol>
    <symbol id="uw-symbol-caret-down" class="uw-caret" viewBox="0 0 1792 1792">
      <title>Expand</title>
      <path d="M1395 736q0 13-10 23l-466 466q-10 10-23 10t-23-10l-466-466q-10-10-10-23t10-23l50-50q10-10 23-10t23 10l393 393 393-393q10-10 23-10t23 10l50 50q10 10 10 23z"></path>
    </symbol>
    <symbol id="uw-symbol-chevron-right" viewBox="0 0 695 1024">
      <title id="svg-next-slide">next slide</title>
      <path class="path1" d="M632.571 501.143l-424 424q-10.857 10.857-25.714 10.857t-25.714-10.857l-94.857-94.857q-10.857-10.857-10.857-25.714t10.857-25.714l303.429-303.429-303.429-303.429q-10.857-10.857-10.857-25.714t10.857-25.714l94.857-94.857q10.857-10.857 25.714-10.857t25.714 10.857l424 424q10.857 10.857 10.857 25.714t-10.857 25.714z"></path>
    </symbol>
    <symbol id="uw-symbol-chevron-left" viewBox="0 0 768 1024">
      <title id="svg-previous">previous slide</title>
      <path class="path1" d="M669.143 172l-303.429 303.429 303.429 303.429q10.857 10.857 10.857 25.714t-10.857 25.714l-94.857 94.857q-10.857 10.857-25.714 10.857t-25.714-10.857l-424-424q-10.857-10.857-10.857-25.714t10.857-25.714l424-424q10.857-10.857 25.714-10.857t25.714 10.857l94.857 94.857q10.857 10.857 10.857 25.714t-10.857 25.714z"></path>
    </symbol>
    <symbol id="uw-symbol-crest-footer" viewBox="0 0 326 216">
      <title id="svg-crest-footer">Footer Crest</title>
      <g>
        <path d="M21.3,195.1c-5.7-4.1-6.2-3.7-8.3-10.1l-7.3-23c-1.1-3.4-2.1-7.5-5.2-9.6v-0.2h9.1c-0.2,1.4,0.4,3.3,0.7,4.5l9.3,28.9
          l7.3-23.7c1.2-3.8,2.4-7.8-1-9.6v-0.2h8.8c-0.4,1.6,0.1,3.5,0.9,6.3l8.7,27l7-22.8c1.1-3.5,3.2-8.6-1.7-10.3v-0.2h9.6l-13.1,42.8
          c-5.7-3.9-6.2-3.6-8.2-10L31,163.7L21.3,195.1z"/>
        <path d="M64.5,161.1c0-2.9,0.4-7.4-2.7-8.6v-0.2h11.8v0.2c-3.1,1.2-2.7,5.8-2.7,8.6v23.5c0,2.8-0.4,7.3,2.7,8.5v0.2H61.7v-0.2
          c3.1-1.1,2.7-5.7,2.7-8.5V161.1z"/>
        <path d="M102.2,159.7c-2.4-2.5-6.3-3.9-9.8-3.9c-3.5,0-8,1.4-8,5.7c0,8.5,21.4,8.4,21.4,19.9c0,6.7-7,12.9-16.7,12.9
          c-3.8,0-7.6-0.6-11.1-1.9l-1.8-7.8c3.7,3.2,8.8,5.2,13.6,5.2c3.5,0,8.9-2.1,8.9-6.5c0-9.7-21.4-8-21.4-21.2c0-7.8,8-10.8,15.6-10.8
          c3.1,0,6.3,0.4,9.3,1.4V159.7z"/>
        <path d="M141.5,160c-3.4-2.2-7.4-3.5-11.5-3.5c-8.6,0-14.6,6.3-14.6,15.3c0,9.2,6.2,17.3,15.8,17.3c4.7,0,9.3-1.7,13.3-3.9h0.2
          l-3.2,7.2c-2.9,1.4-6.2,1.9-9.4,1.9c-14.7,0-23.8-8.2-23.8-21.5c0-12.9,9.1-21.4,21.8-21.4c3.8,0,7.7,0.7,11.3,1.6V160z"/>
        <path d="M189.9,172.3c0,12.7-10.5,21.9-22.9,21.9c-12.3,0-22.7-8.8-22.7-21.6c0-11.8,10.3-21.7,23.3-21.4
          C180.7,151.2,189.9,161.1,189.9,172.3z M151.3,172.1c0,8.7,6.2,17.7,15.9,17.7c9.5,0,15.5-6.9,15.5-16.2c0-9.1-5.8-17.9-15.6-17.9
          C157.5,155.7,151.3,162.7,151.3,172.1z"/>
        <path d="M199.3,185.2c0,3.5-0.1,6,3.2,7.9v0.2h-11v-0.2c3.3-1.9,3.3-4.4,3.3-7.9v-24.8c0-3.5,0-6-3.2-7.8v-0.2h9.1v0.1
          c0.2,0.7,0.5,1.1,0.9,1.6l0.9,1.2l22.8,28.8v-23.6c0-3.5,0.1-6-3.2-7.8v-0.2h11v0.2c-3.2,1.9-3.2,4.4-3.2,7.8v34.9
          c-4.4-1.5-6.4-3.5-9.1-7.1l-21.4-27.1V185.2z"/>
        <path d="M261.2,159.7c-2.4-2.5-6.3-3.9-9.8-3.9c-3.5,0-8,1.4-8,5.7c0,8.5,21.4,8.4,21.4,19.9c0,6.7-7,12.9-16.7,12.9
          c-3.8,0-7.6-0.6-11.1-1.9l-1.8-7.8c3.7,3.2,8.8,5.2,13.6,5.2c3.5,0,8.9-2.1,8.9-6.5c0-9.7-21.4-8-21.4-21.2c0-7.8,8-10.8,15.6-10.8
          c3.1,0,6.3,0.4,9.3,1.4V159.7z"/>
        <path d="M270.7,161.1c0-2.9,0.4-7.4-2.7-8.6v-0.2h11.8v0.2c-3.1,1.2-2.7,5.8-2.7,8.6v23.5c0,2.8-0.4,7.3,2.7,8.5v0.2H268v-0.2
          c3.1-1.1,2.7-5.7,2.7-8.5V161.1z"/>
        <path d="M291.8,185.2c0,3.5-0.1,6,3.2,7.9v0.2h-11v-0.2c3.3-1.9,3.3-4.4,3.3-7.9v-24.8c0-3.5,0-6-3.2-7.8v-0.2h9.1v0.1
          c0.2,0.7,0.5,1.1,0.9,1.6l0.9,1.2l22.8,28.8v-23.6c0-3.5,0.1-6-3.2-7.8v-0.2h11v0.2c-3.2,1.9-3.2,4.4-3.2,7.8v34.9
          c-4.4-1.5-6.4-3.5-9.1-7.1l-21.4-27.1V185.2z"/>
      </g>
      <g>
        <path d="M11.7,203.2v7c0,2.7,1.5,3.5,3,3.5c1.7,0,3-0.8,3-3.5v-7h1.5v6.9c0,3.8-2.1,4.8-4.5,4.8c-2.4,0-4.5-1.2-4.5-4.7v-7H11.7z"
          />
        <path d="M22.3,214.8v-11.6h2c1.7,2.7,5.3,8.5,5.9,9.7h0c-0.1-1.5-0.1-3.3-0.1-5.2v-4.5h1.4v11.6h-1.9c-1.5-2.5-5.3-8.7-6-10h0
          c0.1,1.3,0.1,3.3,0.1,5.4v4.6H22.3z"/>
        <path d="M36.6,203.2v11.6h-1.5v-11.6H36.6z"/>
        <path d="M42.9,214.8l-4.2-11.6h1.6l2,5.8c0.6,1.7,1.2,3.4,1.4,4.5h0c0.2-0.9,0.9-2.7,1.5-4.4l2.1-5.8H49l-4.4,11.6H42.9z"/>
        <path d="M58.4,209.3h-5.7v4.1H59l-0.2,1.3h-7.6v-11.6h7.5v1.3h-6v3.5h5.7V209.3z"/>
        <path d="M63,209.7v5.1h-1.5v-11.6H66c2.4,0,3.6,1.3,3.6,3.1c0,1.5-0.9,2.4-2,2.7c0.9,0.2,1.8,1,1.8,3v0.5c0,0.8,0,1.8,0.2,2.3h-1.5
          c-0.2-0.5-0.2-1.4-0.2-2.5V212c0-1.6-0.5-2.4-2.5-2.4H63z M63,208.4h2.5c1.8,0,2.5-0.7,2.5-2c0-1.2-0.8-1.9-2.4-1.9H63V208.4z"/>
        <path d="M73.3,211.5c0.3,1.4,1.3,2.1,2.9,2.1c1.8,0,2.5-0.8,2.5-1.9c0-1.2-0.6-1.8-2.9-2.4c-2.7-0.7-3.7-1.6-3.7-3.2
          c0-1.7,1.3-3.1,3.8-3.1c2.8,0,3.9,1.6,4.1,3.1h-1.6c-0.2-1-0.8-1.9-2.5-1.9c-1.4,0-2.2,0.6-2.2,1.7c0,1.1,0.6,1.5,2.7,2
          c3.3,0.8,3.9,2.1,3.9,3.6c0,1.9-1.4,3.3-4.2,3.3c-2.9,0-4.2-1.6-4.4-3.4H73.3z"/>
        <path d="M84.5,203.2v11.6H83v-11.6H84.5z"/>
        <path d="M90.4,204.5h-3.7v-1.3h9v1.3h-3.7v10.3h-1.5V204.5z"/>
        <path d="M101.2,214.8v-4.2c0-0.1,0-0.2-0.1-0.3l-4.1-7h1.8c1,1.9,2.7,4.9,3.3,5.9c0.5-1,2.2-4,3.3-5.9h1.6l-4.2,7
          c0,0.1-0.1,0.1-0.1,0.3v4.2H101.2z"/>
        <path d="M123.5,208.9c0,3.2-1.8,6-5.4,6c-3.4,0-5.3-2.6-5.3-5.9c0-3.3,1.9-5.9,5.4-5.9C121.5,203,123.5,205.5,123.5,208.9z
           M114.4,208.9c0,2.5,1.3,4.7,3.8,4.7c2.7,0,3.8-2.2,3.8-4.7c0-2.5-1.2-4.6-3.8-4.6C115.5,204.3,114.4,206.5,114.4,208.9z"/>
        <path d="M126.3,203.2h7.4v1.3h-5.9v3.8h5.5v1.3h-5.5v5.2h-1.5V203.2z"/>
        <path d="M142.5,214.8l-3.1-11.6h1.6c0.9,3.8,2.1,8.6,2.4,9.9h0c0.3-1.5,1.9-6.9,2.6-9.9h1.5c0.7,2.6,2.3,8.5,2.5,9.8h0
          c0.4-2,2-7.5,2.6-9.8h1.5l-3.4,11.6h-1.6c-0.7-2.7-2.2-8.2-2.5-9.6h0c-0.3,1.7-1.8,6.9-2.6,9.6H142.5z"/>
        <path d="M158,203.2v11.6h-1.5v-11.6H158z"/>
        <path d="M162.2,211.5c0.3,1.4,1.3,2.1,2.9,2.1c1.8,0,2.5-0.8,2.5-1.9c0-1.2-0.6-1.8-2.9-2.4c-2.7-0.7-3.7-1.6-3.7-3.2
          c0-1.7,1.3-3.1,3.8-3.1c2.8,0,3.9,1.6,4.1,3.1h-1.6c-0.2-1-0.8-1.9-2.5-1.9c-1.4,0-2.2,0.6-2.2,1.7c0,1.1,0.6,1.5,2.7,2
          c3.3,0.8,3.9,2.1,3.9,3.6c0,1.9-1.4,3.3-4.2,3.3c-2.9,0-4.2-1.6-4.4-3.4H162.2z"/>
        <path d="M181.1,211.5c-0.5,2-2,3.4-4.6,3.4c-3.5,0-5.2-2.6-5.2-5.9c0-3.1,1.7-6,5.3-6c2.7,0,4.2,1.6,4.6,3.5h-1.5
          c-0.4-1.3-1.2-2.2-3.1-2.2c-2.6,0-3.6,2.3-3.6,4.7c0,2.3,1,4.7,3.7,4.7c1.8,0,2.6-1,3-2.1H181.1z"/>
        <path d="M193.9,208.9c0,3.2-1.8,6-5.4,6c-3.4,0-5.3-2.6-5.3-5.9c0-3.3,1.9-5.9,5.4-5.9C191.8,203,193.9,205.5,193.9,208.9z
           M184.7,208.9c0,2.5,1.3,4.7,3.8,4.7c2.7,0,3.8-2.2,3.8-4.7c0-2.5-1.2-4.6-3.8-4.6C185.9,204.3,184.7,206.5,184.7,208.9z"/>
        <path d="M196.6,214.8v-11.6h2c1.7,2.7,5.3,8.5,5.9,9.7h0c-0.1-1.5-0.1-3.3-0.1-5.2v-4.5h1.4v11.6H204c-1.5-2.5-5.3-8.7-6-10h0
          c0.1,1.3,0.1,3.3,0.1,5.4v4.6H196.6z"/>
        <path d="M210.1,211.5c0.3,1.4,1.3,2.1,2.9,2.1c1.8,0,2.5-0.8,2.5-1.9c0-1.2-0.6-1.8-2.9-2.4c-2.7-0.7-3.7-1.6-3.7-3.2
          c0-1.7,1.3-3.1,3.8-3.1c2.8,0,3.9,1.6,4.1,3.1h-1.6c-0.2-1-0.8-1.9-2.5-1.9c-1.4,0-2.2,0.6-2.2,1.7c0,1.1,0.6,1.5,2.7,2
          c3.3,0.8,3.9,2.1,3.9,3.6c0,1.9-1.4,3.3-4.2,3.3c-2.9,0-4.2-1.6-4.4-3.4H210.1z"/>
        <path d="M221.3,203.2v11.6h-1.5v-11.6H221.3z"/>
        <path d="M224.8,214.8v-11.6h2c1.7,2.7,5.3,8.5,5.9,9.7h0c-0.1-1.5-0.1-3.3-0.1-5.2v-4.5h1.4v11.6h-1.9c-1.5-2.5-5.3-8.7-6-10h0
          c0.1,1.3,0.1,3.3,0.1,5.4v4.6H224.8z"/>
        <path d="M243.4,209.8v1.3h-6.6v-1.3H243.4z"/>
        <path d="M256.1,209.8c0-2.2,0-4.3,0.1-5.6h-0.1c-0.5,1.9-2.4,6.8-3.7,10.5H251c-1-3-2.9-8.5-3.5-10.5h0c0.1,1.3,0.1,3.9,0.1,5.9
          v4.6h-1.4v-11.6h2.3c1.3,3.6,2.9,8.2,3.3,9.7h0c0.3-1.1,2.2-6.2,3.5-9.7h2.2v11.6h-1.5V209.8z"/>
        <path d="M262.6,211.3l-1.2,3.5h-1.5l4.1-11.6h1.9l4.3,11.6h-1.6l-1.3-3.5H262.6z M266.8,210c-1.1-3-1.7-4.7-2-5.5h0
          c-0.3,1-1,2.9-1.8,5.5H266.8z"/>
        <path d="M272.3,203.2h4.1c3.3,0,5.5,2.2,5.5,5.7c0,3.4-2.1,5.9-5.5,5.9h-4.1V203.2z M273.8,213.5h2.4c2.7,0,4-2,4-4.6
          c0-2.3-1.2-4.4-4-4.4h-2.4V213.5z"/>
        <path d="M286.2,203.2v11.6h-1.5v-11.6H286.2z"/>
        <path d="M290.3,211.5c0.3,1.4,1.3,2.1,2.9,2.1c1.8,0,2.5-0.8,2.5-1.9c0-1.2-0.6-1.8-2.9-2.4c-2.7-0.7-3.7-1.6-3.7-3.2
          c0-1.7,1.3-3.1,3.8-3.1c2.8,0,3.9,1.6,4.1,3.1h-1.6c-0.2-1-0.8-1.9-2.5-1.9c-1.4,0-2.2,0.6-2.2,1.7c0,1.1,0.6,1.5,2.7,2
          c3.3,0.8,3.9,2.1,3.9,3.6c0,1.9-1.4,3.3-4.2,3.3c-2.9,0-4.2-1.6-4.4-3.4H290.3z"/>
        <path d="M310.1,208.9c0,3.2-1.8,6-5.4,6c-3.4,0-5.3-2.6-5.3-5.9c0-3.3,1.9-5.9,5.4-5.9C308.1,203,310.1,205.5,310.1,208.9z
           M301,208.9c0,2.5,1.3,4.7,3.8,4.7c2.7,0,3.8-2.2,3.8-4.7c0-2.5-1.2-4.6-3.8-4.6C302.2,204.3,301,206.5,301,208.9z"/>
        <path d="M312.9,214.8v-11.6h2c1.7,2.7,5.3,8.5,5.9,9.7h0c-0.1-1.5-0.1-3.3-0.1-5.2v-4.5h1.4v11.6h-1.9c-1.5-2.5-5.3-8.7-6-10h0
          c0.1,1.3,0.1,3.3,0.1,5.4v4.6H312.9z"/>
      </g>
      <path d="M211.4,52c-0.3-3-0.8-6-1.4-8.9c-0.6-2.7-1.3-5.4-2.3-8c-1-2.8-2.2-5.5-3.6-8c-1.4-2.4-3-4.6-4.8-6.7
        c-4.9-5.4-11.1-8.4-17.8-8.5l-0.1,0c-1.1-2.4-4.1-4.4-6.8-4.7c0,0-1.4-6-7.8-6.1c-6.4,0-7.8,6.1-7.8,6.1c-2.6,0.4-5.7,2.3-6.8,4.7
        l-0.1,0c-6.8,0.1-12.9,3.1-17.8,8.5c-1.9,2-3.4,4.3-4.8,6.7c-1.4,2.5-2.6,5.3-3.6,8c-0.9,2.6-1.7,5.3-2.3,8
        c-0.6,2.9-1.1,5.9-1.4,8.9c-3.7,36.8,12.8,82,42.5,88.9c0.5,0.7,1.5,2.1,2.1,2.1c0.6,0,1.6-1.4,2.1-2.1
        C198.6,134,215.1,88.8,211.4,52z M166.8,2.5c5.2,0,6.4,4.4,6.4,4.5c-2.6,0.2-5,1.7-6.3,4c0,0-0.1,0.2-0.1,0.2
        c-0.1,0-0.1-0.1-0.1-0.2c-1.3-2.3-3.7-3.8-6.3-4C160.4,6.9,161.5,2.5,166.8,2.5z M163.7,9.5c1.3,0.8,2.2,2,2.6,3.4
        c0.1,0.4,0.3,0.7,0.4,0.7s0.3-0.3,0.4-0.7c0.4-1.4,1.3-2.7,2.6-3.4c3.8-2.3,8.1-0.8,9.8,2.6c-0.9,0.1-1.7,0.4-2.7,0.7
        c-1.5,0.5-2.8,1.2-3.9,2.1c-2.4,2.2-4.5,5.6-4.9,9.9c-1.1,11.9,12.6,10,13.2,10c1.8,0,3.1-2.8,3.1-6.5c0-3.7-1.4-6.5-3.1-6.5
        c-1.1,0-2.9,0.8-3.1,4.1c-0.1,2.3,1,5.4,2.5,5.6c0.8,0.1,1.5-1.2,1.7-2.6c0.2-1.2,0.1-3-1-3.3c-0.3-0.1-0.7,0.1-0.8,0.5
        c-0.1,0.3,0.7,0.8,0.6,2.2c0,2-2.1,1-1.8-2.2c0.2-2.9,1.7-2.7,1.8-2.7c0.8,0,2.1,1.7,2.1,4.9c0,2.8-1.4,5.9-4,4.3
        c-2.2-1.6-3.1-5.3-2.5-8.2c0.3-1.3,1.4-4.9,5.1-4.9c5.3,0,10.2,2.8,14.2,8c-0.4,1.4-3.2,6.7-11.8,11.7c-0.2,0.1-0.5,0.3-0.5,0.2
        c-2.6-1.1-5.1-1.8-8-1.6c-2.6,0.1-5.1,0.6-7.5,1.2c-0.5,0.1-1,0.2-1.5,0.2c-0.5,0-1-0.1-1.5-0.2c-2.5-0.6-5-1.1-7.5-1.2
        c-2.9-0.2-5.4,0.5-8,1.6c0,0-0.3-0.2-0.5-0.2c-8.7-5.1-11.4-10.3-11.8-11.7c3.9-5.2,8.9-8,14.2-8c3.7,0,4.8,3.6,5.1,4.9
        c0.6,2.9-0.3,6.6-2.5,8.2c-2.6,1.6-4-1.5-4-4.3c0-3.2,1.2-4.9,2.1-4.9c0.1,0,1.5-0.2,1.8,2.7c0.3,3.2-1.8,4.2-1.8,2.2
        c0-1.4,0.7-1.9,0.6-2.2c-0.1-0.3-0.4-0.5-0.8-0.5c-1.1,0.3-1.2,2.1-1,3.3c0.2,1.4,0.9,2.7,1.7,2.6c1.5-0.2,2.6-3.3,2.5-5.6
        c-0.2-3.3-2-4.1-3.1-4.1c-1.7,0-3.1,2.8-3.1,6.5c0,3.7,1.3,6.5,3.1,6.5c0.7,0.1,14.3,1.9,13.2-10c-0.4-4.3-2.5-7.7-4.9-9.9
        c-1.1-1-2.3-1.6-3.9-2.1c-1.1-0.3-1.8-0.5-2.7-0.7C155.6,8.7,159.9,7.1,163.7,9.5z M138.1,58.5c-4.4-0.4-7.8-1.9-9.4-2.7
        c0.7-11.9,3.7-21.2,8.1-27.4c0.8,2,4.2,7.1,12,11.7C142.1,44,139.1,52.3,138.1,58.5z M149.6,41.4c2-1.2,4.5-1.8,7.1-2
        c4.5-0.3,7.8,1.4,10,1.5h0.1c2.2-0.1,5.5-1.8,10-1.5c2.6,0.2,5.2,0.7,7.1,2c9.1,5.8,10.4,19.1,10.5,23.5c0.6,15.5-4.2,27.5-5.8,30.9
        c-6.3,13.8-13.9,23.6-21.4,26.9l-0.6,0.3l-0.6-0.3c-7.5-3.3-15.1-13.1-21.4-26.9c-1.5-3.3-6.4-15.4-5.8-30.9
        C139.2,60.6,140.5,47.2,149.6,41.4z M137.9,59.3c-0.3,2.3-0.5,4.2-0.5,5.4c-0.2,4.3,0,8.6,0.6,12.9c0.6,4,1.5,8,2.7,11.9
        c1.7,5.3,4,10.3,6.7,15.2c-2.8,2.5-7,3.5-8.4,3.8c-7.5-15-11.4-34.3-10.5-51.7C130.4,57.6,133.7,59,137.9,59.3z M147.9,105.4
        c5,8.6,10,13.8,13.7,16.5c-1.4,3.5-4.6,6.2-5.8,7.1c-6.5-4.4-12-11.3-16.4-19.7C141.2,108.9,145.1,107.9,147.9,105.4z M162.4,122.4
        c2,1.5,4.1,2.3,4.3,2.4c0.3-0.1,2.3-0.9,4.3-2.4c1.4,3.4,4.4,6,5.7,7.1c-1.9,1.2-3.8,2.2-5.8,2.9c0-0.1,0-0.1,0-0.2
        c-0.4-2.1-3.2-2.6-4.2-2.6c-1,0-3.8,0.4-4.2,2.6c0,0.1,0,0.1,0,0.2c-2-0.7-4-1.7-5.8-2.9C158,128.4,161,125.8,162.4,122.4z
         M171.9,121.9c3.8-2.7,8.7-7.9,13.7-16.5c2.8,2.5,6.7,3.5,8.4,3.8c-4.3,8.4-9.9,15.3-16.4,19.7C176.5,128.1,173.2,125.4,171.9,121.9
        z M186,104.6c2.7-4.8,5-9.9,6.7-15.2c1.2-3.9,2.1-7.9,2.7-11.9c0.6-4.3,0.8-8.6,0.6-12.9c0-1.2-0.2-3.1-0.5-5.4
        c4.3-0.4,7.6-1.7,9.3-2.6c0.9,17.4-3,36.8-10.5,51.7C193,108.2,188.8,107.2,186,104.6z M195.4,58.5c-1-6.2-4.1-14.3-10.7-18.5
        c7.8-4.6,11.2-9.7,12-11.7c4.4,6.2,7.4,15.5,8.1,27.4C203.3,56.6,199.9,58.1,195.4,58.5z M161.9,138.3c-3.4-1.1-6.6-2.7-9.5-4.8
        c-1.9-1.3-3.6-2.7-5.3-4.3c-1.3-1.3-2.6-2.6-3.8-4c-0.8-1-1.6-1.9-2.4-2.9c-3.6-4.8-6.7-10.2-9.1-15.7c-2.3-5.4-4.2-10.9-5.6-16.6
        c-1.4-5.8-2.4-11.7-2.9-17.6c-0.5-5.8-0.6-11.8-0.1-17.6c0.3-3.1,0.6-6.3,1.2-9.4c0.6-3.1,1.3-6.1,2.3-9.1c0.9-2.7,2-5.4,3.4-7.9
        c1.4-2.6,3.1-5.1,5.1-7.2c1.9-2,4-3.7,6.4-5c1-0.5,2.1-1,3.1-1.4c0.5-0.2,1.1-0.4,1.7-0.5c0.5-0.1,1.1-0.4,1.7-0.4
        c1.4-0.3,2.8-0.4,4.2-0.4c1.1,0,3.9,0.2,6.3,1.7c2.7,1.9,5,5,5.4,9.8c0.6,7.3-6.8,8.5-8.3,8.5c-0.2,0-0.3-0.2,0.4-1
        c1.7-2.2,2.3-5.6,1.7-8.3c-0.7-3.4-3.1-6-6.5-6c-5.2,0-9.8,2.6-13.2,6.3c-3.3,3.6-5.6,8.2-7.3,12.8c-2.1,5.9-3.2,12.2-3.6,18.5
        c-0.4,5.8-0.2,11.6,0.4,17.3c0.6,5.8,1.7,11.6,3.2,17.2c1.5,5.5,3.4,10.9,5.7,16c2.4,5.2,5.3,10.2,8.9,14.7
        c3.6,4.5,8.1,8.5,13.2,11.2c1.2,0.6,2.4,1.1,3.6,1.6c-0.1,1.9,0.4,3.6,1.1,5C162.6,138.6,162.6,138.5,161.9,138.3z M167.3,140.8
        c0,0-0.3,0.3-0.5,0.3c-0.3,0-0.5-0.3-0.5-0.3c-1.3-1.6-3.2-4.7-2.5-8.4c0.2-1,2-1.5,3-1.5c1,0,2.8,0.5,3,1.5
        C170.4,136.1,168.5,139.2,167.3,140.8z M210.2,72.4c-0.5,5.9-1.5,11.8-2.9,17.6c-1.4,5.7-3.2,11.2-5.6,16.6
        c-2.4,5.5-5.4,10.9-9.1,15.7c-0.8,1-1.5,2-2.4,2.9c-1.2,1.4-2.5,2.7-3.8,4c-1.6,1.5-3.4,3-5.3,4.3c-2.9,2-6.2,3.7-9.5,4.8
        c-0.7,0.2-0.7,0.3-1.5,0.4c0.7-1.4,1.2-3.1,1.1-5c1.2-0.4,2.4-1,3.6-1.6c5.2-2.6,9.6-6.7,13.2-11.2c3.6-4.5,6.5-9.5,8.9-14.7
        c2.4-5.2,4.3-10.5,5.7-16c1.5-5.6,2.6-11.4,3.2-17.2c0.6-5.7,0.8-11.5,0.4-17.3c-0.4-6.3-1.5-12.6-3.6-18.5
        c-1.6-4.6-3.9-9.2-7.3-12.8c-3.4-3.7-8-6.3-13.2-6.3c-3.4,0-5.8,2.6-6.5,6c-0.6,2.7,0,6.1,1.7,8.3c0.7,0.8,0.6,1,0.4,1
        c-1.5,0-9-1.1-8.3-8.5c0.4-4.8,2.8-7.9,5.4-9.8c2.4-1.5,5.2-1.7,6.3-1.7c1.4,0,2.8,0.1,4.2,0.4c0.5,0,1.2,0.2,1.7,0.4
        c0.6,0.2,1.1,0.3,1.7,0.5c1.1,0.4,2.1,0.9,3.1,1.4c2.4,1.3,4.6,3.1,6.4,5c2,2.1,3.7,4.6,5.1,7.2c1.4,2.5,2.5,5.2,3.4,7.9
        c1,3,1.8,6,2.3,9.1c0.6,3.1,0.9,6.2,1.2,9.4C210.8,60.6,210.7,66.5,210.2,72.4z"/>
      <path d="M180.3,54.4v3l0.6-0.1c0,0,0.1,0,0.3,0c0.3,0,0.9,0.1,1.3,0.5c0.4,0.4,0.5,1,0.3,1.8c0,0-6.1,26.3-7.2,31.3
        C174.3,84.6,167,50,167,50l0-0.1h-1.4l0,0.2c0,0-5.2,33.7-6.3,40.4c-1.4-5.8-7.2-30.8-7.2-30.8c0-0.2,0-0.3,0-0.5
        c0-0.7,0.2-1.2,0.5-1.5c0.4-0.4,1.1-0.4,1.2-0.4l0.6,0.1l0-2.9h-10.1v2.9l0.4,0.1c0.2,0,1.4,0.3,1.5,1.4c0,0,11.9,51,12.4,53.1
        l0,0.1h1.8l0-0.2c0.1-0.4,4.9-32,5.8-37.9c1.1,5.9,7.3,37.5,7.4,37.9l0,0.1h1.6L187,58.7c0.3-1.1,1.2-1.2,1.6-1.2c0.1,0,0.1,0,0.1,0
        l0.6,0v-3.1H180.3z"/>
    </symbol>
    <symbol id="uw-symbol-crest" viewBox="-5 294 132.8 206">
      <title id="uw-crest">UW Crest</title>
      <style type="text/css">
        .st0{fill:url(#SVGID_1_);}
        .st1{fill:#262425;}
        .st2{fill:url(#SVGID_2_);}
        .st3{fill:#FFFFFF;}
      </style>
      <g>

          <radialGradient id="SVGID_1_" cx="61.437" cy="399.05" r="84.7617" gradientTransform="matrix(1 0 0 -1 0 796)" gradientUnits="userSpaceOnUse">
          <stop  offset="0.1656" style="stop-color:#FFFFFF"/>
          <stop  offset="0.2982" style="stop-color:#F6EEE5"/>
          <stop  offset="0.6852" style="stop-color:#DEBF9C"/>
          <stop  offset="0.865" style="stop-color:#D5AD80"/>
        </radialGradient>
        <path class="st0" d="M58.4,495.1c0.7,1,2.2,3,3,3s2.3-2,3-3c42.4-9.9,66-74.3,60.6-126.7c-1.1-10.7-3.4-20.1-6.7-28.1
          c-0.1-0.2-0.5-1.1-0.5-1.3c-2.7-6.2-6.1-11.5-9.9-15.7c-7-7.7-15.8-12-25.4-12.1c-0.3,0-0.2,0-0.2,0c-1.6-3.4-5.7-5.8-9.5-6.3
          c0,0-2.2-9.1-11.3-9.1C52.2,295.9,50,305,50,305c-3.8,0.5-7.9,2.9-9.4,6.3c0,0,0.2,0-0.2,0c-9.7,0.1-18.4,4.4-25.4,12.1
          c-3.9,4.2-7.2,9.5-9.9,15.7c-0.1,0.2-0.5,1-0.5,1.3c-3.3,8-5.7,17.4-6.7,28.1C-7.6,420.9,16,485.3,58.4,495.1z"/>
      </g>
      <path class="st1" d="M125,368.5c-1.1-10.7-3.4-20.1-6.7-28.1c-0.1-0.2-0.5-1.1-0.5-1.3c-2.7-6.2-6.1-11.5-9.9-15.7
        c-7-7.7-15.8-12-25.4-12.1c-0.3,0-0.2,0-0.2,0c-1.6-3.4-5.7-5.8-9.5-6.3c0,0-2.2-9.1-11.3-9.1c-9.3,0-11.5,9.1-11.5,9.1
        c-3.8,0.5-7.9,2.9-9.4,6.3c0,0,0.2,0-0.2,0c-9.7,0.1-18.4,4.4-25.4,12.1c-3.9,4.2-7.2,9.5-9.9,15.7c-0.1,0.2-0.5,1-0.5,1.3
        c-3.3,8-5.7,17.4-6.7,28.1C-7.6,420.9,16,485.3,58.4,495.1c0.7,1,2.2,3,3,3s2.3-2,3-3C106.7,485.3,130.3,420.9,125,368.5z
         M123.1,368.7c0.1,0.7,0.1,1.3,0.2,2c-2,0-4,0.3-5.9,1c-1.4-16.3-5.8-29.8-12.4-38.9c1.3-1.6,3.1-2.9,4.9-3.8
        C116.8,338.6,121.4,352.1,123.1,368.7z M40.4,330.9c-1.5,0.4-1.6,3-1.4,4.7c0.3,1.9,1.3,3.9,2.4,3.7c2.1-0.3,3.7-4.7,3.5-8
        c-0.2-4.7-2.8-5.9-4.4-5.9c-2.5,0-4.4,4-4.4,9.2c0,5.2,1.9,9.2,4.4,9.2c1,0.1,20.4,2.7,18.9-14.2c-0.7-8-5.6-13.7-10.1-16.4
        c4.3-2.6,9.8,1.9,11.4,7.4c0.3,1.1,1,1.1,1.3-0.1c1.8-5.7,6.6-9.9,10.8-7.3c-4.5,2.7-8.9,8.4-9.6,16.4c-1.5,17,18,14.4,19,14.3
        c2.5,0,4.4-4,4.4-9.2c0-5.2-1.9-9.2-4.4-9.2c-1.5,0-4.1,1.2-4.4,5.9c-0.2,3.3,1.4,7.7,3.5,8c1.1,0.1,2.1-1.8,2.4-3.7
        c0.3-1.7,0.1-4.3-1.4-4.7c-0.5-0.1-1,0.2-1.1,0.6s0.9,1.2,0.9,3.1c-0.1,2.9-3,1.4-2.6-3.2c0.3-4.1,2.4-3.8,2.5-3.8
        c1.2,0,2.9,2.4,2.9,7c0,4-2,8.4-5.7,6.1c-3.1-2.3-4.4-7.6-3.5-11.7c0.4-1.9,2-7,7.3-7c7.4,0,14.4,3.9,20,11.1l0,0h0.1l0.1,0.1
        c-0.5,1.8-3.6,8.9-16.1,16.2l0,0c-4.2-2.7-9.1-3.8-13.5-3.8c-6.9,0-9,2.1-12.2,2.1h-0.1h-0.1c-3.2,0-5.3-2.1-12.2-2.1
        c-4.4,0-9.3,1.1-13.5,3.8c0,0,0,0-0.1,0c-12.4-7.2-15.5-14.1-16.1-16.1c5.6-7.4,12.7-11.3,20.2-11.3c5.2,0,6.9,5.1,7.2,7
        c0.9,4.1-0.4,9.4-3.5,11.7c-3.7,2.3-5.7-2.1-5.7-6.1c0-4.6,1.8-7,2.9-7c0.1,0,2.2-0.3,2.5,3.8c0.4,4.6-2.5,6.1-2.6,3.2
        c0-1.9,1-2.7,0.9-3.1C41.3,331.1,40.8,330.8,40.4,330.9z M104.2,334.6c6.4,8.9,10.8,22.3,11.6,39.2c-2.2,1.2-7.1,3.3-13.5,3.9
        c-1.4-8.8-5.1-20.8-14-27.3C99.6,343.7,103.1,337.4,104.2,334.6z M34.4,350.4c-8.9,6.5-12.5,18.5-14,27.3
        c-6.3-0.6-11.1-2.7-13.4-3.9c1-16.9,5.3-30.2,11.5-39.1C19.6,337.6,23.2,343.8,34.4,350.4z M20.2,378.9c-0.5,3.2-0.7,6-0.7,7.7
        c-0.1,2.7-0.1,5.5,0,8.2c0,0.5,0.1,1.1,0.1,1.6v0.4c0.3,5.3,1.1,10.7,2.2,16l0.1,0.5c2.1,9.3,4.9,16.1,6,18.5
        c2,4.3,3.9,8.2,5.9,11.7c-4,3.6-9.9,5-11.9,5.4c-10.7-21.3-16.2-48.9-15-73.7C9.4,376.4,14.1,378.3,20.2,378.9z M34.5,444.6
        c7.1,12.3,14.2,19.6,19.6,23.5c-2,5-6.6,8.8-8.2,10.1c-9.3-6.2-17.2-16.2-23.3-28.1C24.9,449.5,30.5,448.1,34.5,444.6z M55.1,468.8
        L55.1,468.8c3,2.2,6,3.4,6.3,3.4c0.2-0.1,3.3-1.3,6.2-3.4c0.1,0,0.1-0.1,0.2-0.1c2,4.8,6.1,8.5,8.1,10.1c-2.7,1.7-5.5,3.1-8.4,4.2
        c0-0.1,0-0.2,0-0.3c-0.6-3.1-4.7-3.7-6.1-3.7s-5.5,0.6-6.1,3.7c0,0.1,0,0.2,0,0.3c-2.9-1.1-5.6-2.4-8.3-4.1
        C48.8,477.3,53.1,473.6,55.1,468.8z M68.8,467.9c5.4-3.9,12.4-11.3,19.5-23.5c3.8,3.4,9.2,5,11.7,5.5c-6,12-13.8,21.9-23,28.2
        C75.3,476.7,70.7,472.8,68.8,467.9z M88.9,443.3c2-3.5,3.9-7.3,5.8-11.6c1.1-2.5,3.9-9.2,6-18.5l0.1-0.5c1.1-5.3,1.9-10.7,2.2-16
        v-0.4c0-0.5,0.1-1.1,0.1-1.6c0.1-2.7,0.1-5.5,0-8.2c-0.1-1.7-0.3-4.4-0.7-7.7c6.1-0.5,10.8-2.5,13.3-3.7
        c0.9,24.8-4.5,52.3-15.1,73.7C98.3,448.3,92.7,446.8,88.9,443.3z M81.9,313.4c10.9,0,20.2,5.2,27.3,14.6c-1.9,0.9-3.6,2.2-5,3.8
        c-5.7-7.4-12.8-11.5-20.9-11.6c-4.9,0-8.3,3.7-9.3,8.5c-0.8,3.9,0,8.7,2.4,11.8c1.2,1.3,0.7,1.7,0.3,1.7c-3.2,0.1-12.5-2-11.6-12.5
        c0.6-6.8,3.9-11.3,7.7-14C76.3,313.7,80.2,313.4,81.9,313.4z M61.4,297.6c7.4,0,9.1,7.2,9.1,7.3c-0.5,0-1,0.1-1.5,0.2l-1.4,0.4
        c-2.5,0.8-4.7,2.6-6.1,4.9c0,0.1-0.1,0.2-0.2,0.3c-0.1-0.1-0.2-0.2-0.2-0.3c-1.4-2.4-3.5-4.1-6-4.9l-1.4-0.4c-0.5-0.1-1-0.2-1.5-0.2
        C52.2,304.8,53.9,297.6,61.4,297.6z M51.6,306.2c4.2,0,7.9,2.7,9.2,6.7c0.3,1,0.9,1,1.2,0c1.3-4,5-6.7,9.2-6.7
        c3.6,0,6.9,2.1,8.6,5.3c-1.2,0.2-2.6,0.6-4,1.1c-2.5-2.1-4.9-2.1-6.5-1.6c-3.4,1-6.3,4.5-7.8,7.5l-0.1,0.1c0,0-0.1,0-0.1-0.1
        c-1.5-3-4.3-6.5-7.8-7.5c-1.6-0.5-4-0.5-6.5,1.6c-1.4-0.5-2.7-0.9-4-1.1C44.6,308.3,47.9,306.2,51.6,306.2z M40.8,313.4
        c1.6,0,5.5,0.3,9,2.4c3.8,2.7,7.1,7.2,7.7,14c0.9,10.5-9.8,12.1-11.8,12.1c-0.3,0-0.5-0.3,0.6-1.4c2.5-3.1,3.2-8,2.4-11.8
        c-1-4.8-4.4-8.6-9.3-8.5c-8.1,0-15.3,4.2-21,11.6c-1.4-1.6-3.1-2.9-4.9-3.8C20.6,318.6,30,313.4,40.8,313.4z M-0.4,368.7
        c1.7-16.6,6.3-30.1,13.1-39.7c1.9,0.9,3.6,2.2,4.9,3.8c-6.6,9.1-11,22.6-12.4,38.9c-1.8-0.7-3.9-1.1-5.9-1
        C-0.5,370-0.5,369.4-0.4,368.7z M11.5,446.2C1.7,423.7-2.7,396.8-0.7,372c2-0.1,4,0.3,5.9,1.1c0,0.5-0.1,1-0.1,1.5
        c-1.5,24.7,3.9,52.2,14.5,73.8c-2.1,0.5-4.1,1.3-5.8,2.6C13,449.4,12.2,447.8,11.5,446.2z M14.3,452.1c1.7-1.3,3.8-2.2,5.8-2.6
        c6.2,12.2,14.1,22.5,23.4,29.2c-1.6,1.4-2.9,3.2-3.8,5.1C29.9,476.8,21.2,466,14.3,452.1z M40.8,484.6c0.8-2,2.2-3.7,3.8-5.1
        c3.3,2.3,6.8,4.1,10.4,5.4c-0.1,2.7,0.6,5.2,1.5,7.2C51.1,490.6,45.8,488.1,40.8,484.6z M62.1,495c0,0-0.4,0.5-0.8,0.5
        s-0.7-0.5-0.8-0.5c-1.8-2.3-4.5-6.7-3.5-12c0.3-1.5,2.8-2.2,4.3-2.2c1.4,0,4,0.7,4.3,2.2C66.7,488.3,64,492.7,62.1,495z M66.2,492.1
        c0.9-2,1.6-4.5,1.5-7.2c3.7-1.3,7.1-3.1,10.4-5.4c1.7,1.4,3,3.2,3.8,5.1C77,488,71.7,490.6,66.2,492.1z M83,483.8
        c-0.9-1.9-2.2-3.7-3.8-5.1c9.3-6.7,17.2-17,23.4-29.2c2.1,0.4,4.1,1.3,5.8,2.6C101.5,465.9,92.9,476.7,83,483.8z M111.2,446.2
        c-0.7,1.6-1.4,3.2-2.2,4.7c-1.7-1.3-3.7-2.2-5.8-2.6c10.6-21.6,16-49.1,14.5-73.8c0-0.5-0.1-1-0.1-1.5c1.8-0.8,3.9-1.1,5.9-1.1
        C125.4,396.9,121,423.7,111.2,446.2z"/>
      <linearGradient id="SVGID_2_" gradientUnits="userSpaceOnUse" x1="61.3" y1="326.2" x2="61.3" y2="448.2" gradientTransform="matrix(1 0 0 -1 0 796)">
        <stop  offset="1.226990e-02" style="stop-color:#891C21"/>
        <stop  offset="3.047632e-02" style="stop-color:#931E23"/>
        <stop  offset="8.241532e-02" style="stop-color:#A92027"/>
        <stop  offset="0.1419" style="stop-color:#BB2029"/>
        <stop  offset="0.2124" style="stop-color:#C8202A"/>
        <stop  offset="0.3049" style="stop-color:#D0202B"/>
        <stop  offset="0.5031" style="stop-color:#D2202B"/>
        <stop  offset="0.6702" style="stop-color:#CF202B"/>
        <stop  offset="0.7771" style="stop-color:#C6202A"/>
        <stop  offset="0.867" style="stop-color:#B72028"/>
        <stop  offset="0.947" style="stop-color:#A21F25"/>
        <stop  offset="1" style="stop-color:#911D22"/>
      </linearGradient>
      <path class="st2" d="M101.1,386.9c-0.3-6.3-2.1-27.5-15.1-35.8c-2.9-1.9-6.7-3.1-10.2-3.3c-0.5,0-0.9,0-1.4,0
        c-3.4,0-6.3,0.8-8.7,1.4c-1.6,0.4-3.1,0.8-4.3,0.9h-0.2c-1.2,0-2.6-0.4-4.3-0.9c-2.4-0.6-5.3-1.4-8.7-1.4c-0.5,0-1,0-1.4,0
        c-3.6,0.2-7.3,1.4-10.2,3.3c-13,8.3-14.9,29.5-15.1,35.8c-0.9,22.2,5.8,39.8,8,44.6c9,19.9,20.2,33.1,31,37.9l0.9,0.4l0.9-0.4
        c10.8-4.8,21.9-18,31-37.9C95.3,426.7,102,409.1,101.1,386.9z"/>
      <path class="st3" d="M80.6,371.5v4.3l0.9-0.1c0,0,0.2,0,0.4,0c0.5,0,1.4,0.1,1.9,0.6s0.7,1.4,0.5,2.6c0,0-8.7,37.5-10.3,44.7
        c-1.9-9-12.2-58.3-12.2-58.3v-0.2h-2v0.2c0,0-7.5,48-8.9,57.6C49,414.6,40.7,379,40.7,379c0-0.2,0-0.4,0-0.6c0-1,0.2-1.7,0.7-2.2
        c0.6-0.6,1.6-0.5,1.7-0.5l0.9,0.1v-4.2H29.2v4.1l0.6,0.1c0.3,0.1,1.9,0.5,2.2,1.9c0,0,16.9,72.6,17.6,75.7v0.2h2.5v-0.2
        c0.1-0.5,7-45.6,8.3-54c1.6,8.4,10.4,53.5,10.5,54v0.2h2.3L90,377.7c0.4-1.6,1.8-1.7,2.3-1.7c0.1,0,0.1,0,0.2,0l0.8,0.1v-4.4H80.6
        V371.5z"/>
    </symbol>
  </defs>
</svg>