<?xml version="1.0" encoding="utf-8"?>
<!-- Generator: Adobe Illustrator 19.1.0, SVG Export Plug-In . SVG Version: 6.00 Build 0)  -->
<svg version="1.1" id="Layer_1" xmlns="http://www.w3.org/2000/svg" xmlns:xlink="http://www.w3.org/1999/xlink" x="0px" y="0px"
	 viewBox="-5 294 132.8 206" style="enable-background:new -5 294 132.8 206;" xml:space="preserve">
<style type="text/css">
	.st0{fill:url(#SVGID_1_);}
	.st1{fill:#262425;}
	.st2{fill:url(#SVGID_2_);}
	.st3{fill:#FFFFFF;}
</style>
<g>
	
		<radialGradient id="SVGID_1_" cx="61.437" cy="399.05" r="84.7617" gradientTransform="matrix(1 0 0 -1 0 796)" gradientUnits="userSpaceOnUse">
		<stop  offset="0.1656" style="stop-color:#FFFFFF"/>
		<stop  offset="0.2982" style="stop-color:#F6EEE5"/>
		<stop  offset="0.6852" style="stop-color:#DEBF9C"/>
		<stop  offset="0.865" style="stop-color:#D5AD80"/>
	</radialGradient>
	<path class="st0" d="M58.4,495.1c0.7,1,2.2,3,3,3s2.3-2,3-3c42.4-9.9,66-74.3,60.6-126.7c-1.1-10.7-3.4-20.1-6.7-28.1
		c-0.1-0.2-0.5-1.1-0.5-1.3c-2.7-6.2-6.1-11.5-9.9-15.7c-7-7.7-15.8-12-25.4-12.1c-0.3,0-0.2,0-0.2,0c-1.6-3.4-5.7-5.8-9.5-6.3
		c0,0-2.2-9.1-11.3-9.1C52.2,295.9,50,305,50,305c-3.8,0.5-7.9,2.9-9.4,6.3c0,0,0.2,0-0.2,0c-9.7,0.1-18.4,4.4-25.4,12.1
		c-3.9,4.2-7.2,9.5-9.9,15.7c-0.1,0.2-0.5,1-0.5,1.3c-3.3,8-5.7,17.4-6.7,28.1C-7.6,420.9,16,485.3,58.4,495.1z"/>
</g>
<path class="st1" d="M125,368.5c-1.1-10.7-3.4-20.1-6.7-28.1c-0.1-0.2-0.5-1.1-0.5-1.3c-2.7-6.2-6.1-11.5-9.9-15.7
	c-7-7.7-15.8-12-25.4-12.1c-0.3,0-0.2,0-0.2,0c-1.6-3.4-5.7-5.8-9.5-6.3c0,0-2.2-9.1-11.3-9.1c-9.3,0-11.5,9.1-11.5,9.1
	c-3.8,0.5-7.9,2.9-9.4,6.3c0,0,0.2,0-0.2,0c-9.7,0.1-18.4,4.4-25.4,12.1c-3.9,4.2-7.2,9.5-9.9,15.7c-0.1,0.2-0.5,1-0.5,1.3
	c-3.3,8-5.7,17.4-6.7,28.1C-7.6,420.9,16,485.3,58.4,495.1c0.7,1,2.2,3,3,3s2.3-2,3-3C106.7,485.3,130.3,420.9,125,368.5z
	 M123.1,368.7c0.1,0.7,0.1,1.3,0.2,2c-2,0-4,0.3-5.9,1c-1.4-16.3-5.8-29.8-12.4-38.9c1.3-1.6,3.1-2.9,4.9-3.8
	C116.8,338.6,121.4,352.1,123.1,368.7z M40.4,330.9c-1.5,0.4-1.6,3-1.4,4.7c0.3,1.9,1.3,3.9,2.4,3.7c2.1-0.3,3.7-4.7,3.5-8
	c-0.2-4.7-2.8-5.9-4.4-5.9c-2.5,0-4.4,4-4.4,9.2c0,5.2,1.9,9.2,4.4,9.2c1,0.1,20.4,2.7,18.9-14.2c-0.7-8-5.6-13.7-10.1-16.4
	c4.3-2.6,9.8,1.9,11.4,7.4c0.3,1.1,1,1.1,1.3-0.1c1.8-5.7,6.6-9.9,10.8-7.3c-4.5,2.7-8.9,8.4-9.6,16.4c-1.5,17,18,14.4,19,14.3
	c2.5,0,4.4-4,4.4-9.2c0-5.2-1.9-9.2-4.4-9.2c-1.5,0-4.1,1.2-4.4,5.9c-0.2,3.3,1.4,7.7,3.5,8c1.1,0.1,2.1-1.8,2.4-3.7
	c0.3-1.7,0.1-4.3-1.4-4.7c-0.5-0.1-1,0.2-1.1,0.6s0.9,1.2,0.9,3.1c-0.1,2.9-3,1.4-2.6-3.2c0.3-4.1,2.4-3.8,2.5-3.8
	c1.2,0,2.9,2.4,2.9,7c0,4-2,8.4-5.7,6.1c-3.1-2.3-4.4-7.6-3.5-11.7c0.4-1.9,2-7,7.3-7c7.4,0,14.4,3.9,20,11.1l0,0h0.1l0.1,0.1
	c-0.5,1.8-3.6,8.9-16.1,16.2l0,0c-4.2-2.7-9.1-3.8-13.5-3.8c-6.9,0-9,2.1-12.2,2.1h-0.1h-0.1c-3.2,0-5.3-2.1-12.2-2.1
	c-4.4,0-9.3,1.1-13.5,3.8c0,0,0,0-0.1,0c-12.4-7.2-15.5-14.1-16.1-16.1c5.6-7.4,12.7-11.3,20.2-11.3c5.2,0,6.9,5.1,7.2,7
	c0.9,4.1-0.4,9.4-3.5,11.7c-3.7,2.3-5.7-2.1-5.7-6.1c0-4.6,1.8-7,2.9-7c0.1,0,2.2-0.3,2.5,3.8c0.4,4.6-2.5,6.1-2.6,3.2
	c0-1.9,1-2.7,0.9-3.1C41.3,331.1,40.8,330.8,40.4,330.9z M104.2,334.6c6.4,8.9,10.8,22.3,11.6,39.2c-2.2,1.2-7.1,3.3-13.5,3.9
	c-1.4-8.8-5.1-20.8-14-27.3C99.6,343.7,103.1,337.4,104.2,334.6z M34.4,350.4c-8.9,6.5-12.5,18.5-14,27.3
	c-6.3-0.6-11.1-2.7-13.4-3.9c1-16.9,5.3-30.2,11.5-39.1C19.6,337.6,23.2,343.8,34.4,350.4z M20.2,378.9c-0.5,3.2-0.7,6-0.7,7.7
	c-0.1,2.7-0.1,5.5,0,8.2c0,0.5,0.1,1.1,0.1,1.6v0.4c0.3,5.3,1.1,10.7,2.2,16l0.1,0.5c2.1,9.3,4.9,16.1,6,18.5
	c2,4.3,3.9,8.2,5.9,11.7c-4,3.6-9.9,5-11.9,5.4c-10.7-21.3-16.2-48.9-15-73.7C9.4,376.4,14.1,378.3,20.2,378.9z M34.5,444.6
	c7.1,12.3,14.2,19.6,19.6,23.5c-2,5-6.6,8.8-8.2,10.1c-9.3-6.2-17.2-16.2-23.3-28.1C24.9,449.5,30.5,448.1,34.5,444.6z M55.1,468.8
	L55.1,468.8c3,2.2,6,3.4,6.3,3.4c0.2-0.1,3.3-1.3,6.2-3.4c0.1,0,0.1-0.1,0.2-0.1c2,4.8,6.1,8.5,8.1,10.1c-2.7,1.7-5.5,3.1-8.4,4.2
	c0-0.1,0-0.2,0-0.3c-0.6-3.1-4.7-3.7-6.1-3.7s-5.5,0.6-6.1,3.7c0,0.1,0,0.2,0,0.3c-2.9-1.1-5.6-2.4-8.3-4.1
	C48.8,477.3,53.1,473.6,55.1,468.8z M68.8,467.9c5.4-3.9,12.4-11.3,19.5-23.5c3.8,3.4,9.2,5,11.7,5.5c-6,12-13.8,21.9-23,28.2
	C75.3,476.7,70.7,472.8,68.8,467.9z M88.9,443.3c2-3.5,3.9-7.3,5.8-11.6c1.1-2.5,3.9-9.2,6-18.5l0.1-0.5c1.1-5.3,1.9-10.7,2.2-16
	v-0.4c0-0.5,0.1-1.1,0.1-1.6c0.1-2.7,0.1-5.5,0-8.2c-0.1-1.7-0.3-4.4-0.7-7.7c6.1-0.5,10.8-2.5,13.3-3.7
	c0.9,24.8-4.5,52.3-15.1,73.7C98.3,448.3,92.7,446.8,88.9,443.3z M81.9,313.4c10.9,0,20.2,5.2,27.3,14.6c-1.9,0.9-3.6,2.2-5,3.8
	c-5.7-7.4-12.8-11.5-20.9-11.6c-4.9,0-8.3,3.7-9.3,8.5c-0.8,3.9,0,8.7,2.4,11.8c1.2,1.3,0.7,1.7,0.3,1.7c-3.2,0.1-12.5-2-11.6-12.5
	c0.6-6.8,3.9-11.3,7.7-14C76.3,313.7,80.2,313.4,81.9,313.4z M61.4,297.6c7.4,0,9.1,7.2,9.1,7.3c-0.5,0-1,0.1-1.5,0.2l-1.4,0.4
	c-2.5,0.8-4.7,2.6-6.1,4.9c0,0.1-0.1,0.2-0.2,0.3c-0.1-0.1-0.2-0.2-0.2-0.3c-1.4-2.4-3.5-4.1-6-4.9l-1.4-0.4c-0.5-0.1-1-0.2-1.5-0.2
	C52.2,304.8,53.9,297.6,61.4,297.6z M51.6,306.2c4.2,0,7.9,2.7,9.2,6.7c0.3,1,0.9,1,1.2,0c1.3-4,5-6.7,9.2-6.7
	c3.6,0,6.9,2.1,8.6,5.3c-1.2,0.2-2.6,0.6-4,1.1c-2.5-2.1-4.9-2.1-6.5-1.6c-3.4,1-6.3,4.5-7.8,7.5l-0.1,0.1c0,0-0.1,0-0.1-0.1
	c-1.5-3-4.3-6.5-7.8-7.5c-1.6-0.5-4-0.5-6.5,1.6c-1.4-0.5-2.7-0.9-4-1.1C44.6,308.3,47.9,306.2,51.6,306.2z M40.8,313.4
	c1.6,0,5.5,0.3,9,2.4c3.8,2.7,7.1,7.2,7.7,14c0.9,10.5-9.8,12.1-11.8,12.1c-0.3,0-0.5-0.3,0.6-1.4c2.5-3.1,3.2-8,2.4-11.8
	c-1-4.8-4.4-8.6-9.3-8.5c-8.1,0-15.3,4.2-21,11.6c-1.4-1.6-3.1-2.9-4.9-3.8C20.6,318.6,30,313.4,40.8,313.4z M-0.4,368.7
	c1.7-16.6,6.3-30.1,13.1-39.7c1.9,0.9,3.6,2.2,4.9,3.8c-6.6,9.1-11,22.6-12.4,38.9c-1.8-0.7-3.9-1.1-5.9-1
	C-0.5,370-0.5,369.4-0.4,368.7z M11.5,446.2C1.7,423.7-2.7,396.8-0.7,372c2-0.1,4,0.3,5.9,1.1c0,0.5-0.1,1-0.1,1.5
	c-1.5,24.7,3.9,52.2,14.5,73.8c-2.1,0.5-4.1,1.3-5.8,2.6C13,449.4,12.2,447.8,11.5,446.2z M14.3,452.1c1.7-1.3,3.8-2.2,5.8-2.6
	c6.2,12.2,14.1,22.5,23.4,29.2c-1.6,1.4-2.9,3.2-3.8,5.1C29.9,476.8,21.2,466,14.3,452.1z M40.8,484.6c0.8-2,2.2-3.7,3.8-5.1
	c3.3,2.3,6.8,4.1,10.4,5.4c-0.1,2.7,0.6,5.2,1.5,7.2C51.1,490.6,45.8,488.1,40.8,484.6z M62.1,495c0,0-0.4,0.5-0.8,0.5
	s-0.7-0.5-0.8-0.5c-1.8-2.3-4.5-6.7-3.5-12c0.3-1.5,2.8-2.2,4.3-2.2c1.4,0,4,0.7,4.3,2.2C66.7,488.3,64,492.7,62.1,495z M66.2,492.1
	c0.9-2,1.6-4.5,1.5-7.2c3.7-1.3,7.1-3.1,10.4-5.4c1.7,1.4,3,3.2,3.8,5.1C77,488,71.7,490.6,66.2,492.1z M83,483.8
	c-0.9-1.9-2.2-3.7-3.8-5.1c9.3-6.7,17.2-17,23.4-29.2c2.1,0.4,4.1,1.3,5.8,2.6C101.5,465.9,92.9,476.7,83,483.8z M111.2,446.2
	c-0.7,1.6-1.4,3.2-2.2,4.7c-1.7-1.3-3.7-2.2-5.8-2.6c10.6-21.6,16-49.1,14.5-73.8c0-0.5-0.1-1-0.1-1.5c1.8-0.8,3.9-1.1,5.9-1.1
	C125.4,396.9,121,423.7,111.2,446.2z"/>
<linearGradient id="SVGID_2_" gradientUnits="userSpaceOnUse" x1="61.3" y1="326.2" x2="61.3" y2="448.2" gradientTransform="matrix(1 0 0 -1 0 796)">
	<stop  offset="1.226990e-02" style="stop-color:#891C21"/>
	<stop  offset="3.047632e-02" style="stop-color:#931E23"/>
	<stop  offset="8.241532e-02" style="stop-color:#A92027"/>
	<stop  offset="0.1419" style="stop-color:#BB2029"/>
	<stop  offset="0.2124" style="stop-color:#C8202A"/>
	<stop  offset="0.3049" style="stop-color:#D0202B"/>
	<stop  offset="0.5031" style="stop-color:#D2202B"/>
	<stop  offset="0.6702" style="stop-color:#CF202B"/>
	<stop  offset="0.7771" style="stop-color:#C6202A"/>
	<stop  offset="0.867" style="stop-color:#B72028"/>
	<stop  offset="0.947" style="stop-color:#A21F25"/>
	<stop  offset="1" style="stop-color:#911D22"/>
</linearGradient>
<path class="st2" d="M101.1,386.9c-0.3-6.3-2.1-27.5-15.1-35.8c-2.9-1.9-6.7-3.1-10.2-3.3c-0.5,0-0.9,0-1.4,0
	c-3.4,0-6.3,0.8-8.7,1.4c-1.6,0.4-3.1,0.8-4.3,0.9h-0.2c-1.2,0-2.6-0.4-4.3-0.9c-2.4-0.6-5.3-1.4-8.7-1.4c-0.5,0-1,0-1.4,0
	c-3.6,0.2-7.3,1.4-10.2,3.3c-13,8.3-14.9,29.5-15.1,35.8c-0.9,22.2,5.8,39.8,8,44.6c9,19.9,20.2,33.1,31,37.9l0.9,0.4l0.9-0.4
	c10.8-4.8,21.9-18,31-37.9C95.3,426.7,102,409.1,101.1,386.9z"/>
<path class="st3" d="M80.6,371.5v4.3l0.9-0.1c0,0,0.2,0,0.4,0c0.5,0,1.4,0.1,1.9,0.6s0.7,1.4,0.5,2.6c0,0-8.7,37.5-10.3,44.7
	c-1.9-9-12.2-58.3-12.2-58.3v-0.2h-2v0.2c0,0-7.5,48-8.9,57.6C49,414.6,40.7,379,40.7,379c0-0.2,0-0.4,0-0.6c0-1,0.2-1.7,0.7-2.2
	c0.6-0.6,1.6-0.5,1.7-0.5l0.9,0.1v-4.2H29.2v4.1l0.6,0.1c0.3,0.1,1.9,0.5,2.2,1.9c0,0,16.9,72.6,17.6,75.7v0.2h2.5v-0.2
	c0.1-0.5,7-45.6,8.3-54c1.6,8.4,10.4,53.5,10.5,54v0.2h2.3L90,377.7c0.4-1.6,1.8-1.7,2.3-1.7c0.1,0,0.1,0,0.2,0l0.8,0.1v-4.4H80.6
	V371.5z"/>
</svg>
